<mxfile host="app.diagrams.net" modified="2021-12-14T07:18:49.279Z" agent="5.0 (Windows NT 10.0; Win64; x64) AppleWebKit/537.36 (KHTML, like Gecko) Chrome/96.0.4664.93 Safari/537.36" etag="pn55V7IdvC3GNzOjXGeQ" version="15.9.4" type="github">
  <diagram id="C5RBs43oDa-KdzZeNtuy" name="Page-1">
    <mxGraphModel dx="1038" dy="539" grid="1" gridSize="10" guides="1" tooltips="1" connect="1" arrows="1" fold="1" page="1" pageScale="1" pageWidth="827" pageHeight="1169" math="0" shadow="0">
      <root>
        <mxCell id="WIyWlLk6GJQsqaUBKTNV-0" />
        <mxCell id="WIyWlLk6GJQsqaUBKTNV-1" parent="WIyWlLk6GJQsqaUBKTNV-0" />
        <mxCell id="5DlMowVjE7A0AEm3bCIs-0" value="Người dùng" style="text;html=1;strokeColor=none;fillColor=none;align=center;verticalAlign=middle;whiteSpace=wrap;rounded=0;" vertex="1" parent="WIyWlLk6GJQsqaUBKTNV-1">
          <mxGeometry x="140" y="60" width="80" height="30" as="geometry" />
        </mxCell>
        <mxCell id="5DlMowVjE7A0AEm3bCIs-1" value="Hệ thống" style="text;html=1;strokeColor=none;fillColor=none;align=center;verticalAlign=middle;whiteSpace=wrap;rounded=0;" vertex="1" parent="WIyWlLk6GJQsqaUBKTNV-1">
          <mxGeometry x="550" y="60" width="60" height="30" as="geometry" />
        </mxCell>
        <mxCell id="5DlMowVjE7A0AEm3bCIs-2" value="Quản lý sản phẩm" style="text;html=1;strokeColor=none;fillColor=none;align=center;verticalAlign=middle;whiteSpace=wrap;rounded=0;" vertex="1" parent="WIyWlLk6GJQsqaUBKTNV-1">
          <mxGeometry x="340" y="20" width="106" height="30" as="geometry" />
        </mxCell>
        <mxCell id="5DlMowVjE7A0AEm3bCIs-19" style="edgeStyle=orthogonalEdgeStyle;rounded=0;orthogonalLoop=1;jettySize=auto;html=1;exitX=1;exitY=0.5;exitDx=0;exitDy=0;entryX=0;entryY=0.5;entryDx=0;entryDy=0;" edge="1" parent="WIyWlLk6GJQsqaUBKTNV-1" source="5DlMowVjE7A0AEm3bCIs-3" target="5DlMowVjE7A0AEm3bCIs-4">
          <mxGeometry relative="1" as="geometry" />
        </mxCell>
        <mxCell id="5DlMowVjE7A0AEm3bCIs-3" value="Start" style="ellipse;whiteSpace=wrap;html=1;" vertex="1" parent="WIyWlLk6GJQsqaUBKTNV-1">
          <mxGeometry x="30" y="100" width="70" height="40" as="geometry" />
        </mxCell>
        <mxCell id="5DlMowVjE7A0AEm3bCIs-20" style="edgeStyle=orthogonalEdgeStyle;rounded=0;orthogonalLoop=1;jettySize=auto;html=1;exitX=1;exitY=0.5;exitDx=0;exitDy=0;entryX=0;entryY=0.5;entryDx=0;entryDy=0;" edge="1" parent="WIyWlLk6GJQsqaUBKTNV-1" source="5DlMowVjE7A0AEm3bCIs-4" target="5DlMowVjE7A0AEm3bCIs-5">
          <mxGeometry relative="1" as="geometry" />
        </mxCell>
        <mxCell id="5DlMowVjE7A0AEm3bCIs-4" value="Chọn quản lý sản phẩm" style="rounded=1;whiteSpace=wrap;html=1;" vertex="1" parent="WIyWlLk6GJQsqaUBKTNV-1">
          <mxGeometry x="170" y="105" width="90" height="30" as="geometry" />
        </mxCell>
        <mxCell id="5DlMowVjE7A0AEm3bCIs-21" style="edgeStyle=orthogonalEdgeStyle;rounded=0;orthogonalLoop=1;jettySize=auto;html=1;exitX=0.5;exitY=1;exitDx=0;exitDy=0;entryX=0.5;entryY=0;entryDx=0;entryDy=0;" edge="1" parent="WIyWlLk6GJQsqaUBKTNV-1" source="5DlMowVjE7A0AEm3bCIs-5" target="5DlMowVjE7A0AEm3bCIs-6">
          <mxGeometry relative="1" as="geometry" />
        </mxCell>
        <mxCell id="5DlMowVjE7A0AEm3bCIs-22" style="edgeStyle=orthogonalEdgeStyle;rounded=0;orthogonalLoop=1;jettySize=auto;html=1;entryX=0.5;entryY=0;entryDx=0;entryDy=0;" edge="1" parent="WIyWlLk6GJQsqaUBKTNV-1" source="5DlMowVjE7A0AEm3bCIs-5" target="5DlMowVjE7A0AEm3bCIs-10">
          <mxGeometry relative="1" as="geometry">
            <Array as="points">
              <mxPoint x="580" y="160" />
              <mxPoint x="125" y="160" />
            </Array>
          </mxGeometry>
        </mxCell>
        <mxCell id="5DlMowVjE7A0AEm3bCIs-5" value="Hệ thống hiển thị danh sách sp" style="rounded=1;whiteSpace=wrap;html=1;" vertex="1" parent="WIyWlLk6GJQsqaUBKTNV-1">
          <mxGeometry x="530" y="100" width="100" height="40" as="geometry" />
        </mxCell>
        <mxCell id="5DlMowVjE7A0AEm3bCIs-23" style="edgeStyle=orthogonalEdgeStyle;rounded=0;orthogonalLoop=1;jettySize=auto;html=1;exitX=1;exitY=0.5;exitDx=0;exitDy=0;" edge="1" parent="WIyWlLk6GJQsqaUBKTNV-1" source="5DlMowVjE7A0AEm3bCIs-6" target="5DlMowVjE7A0AEm3bCIs-11">
          <mxGeometry relative="1" as="geometry" />
        </mxCell>
        <mxCell id="5DlMowVjE7A0AEm3bCIs-6" value="Tạo mới sản phẩm" style="rounded=1;whiteSpace=wrap;html=1;" vertex="1" parent="WIyWlLk6GJQsqaUBKTNV-1">
          <mxGeometry x="170" y="180" width="90" height="40" as="geometry" />
        </mxCell>
        <mxCell id="5DlMowVjE7A0AEm3bCIs-8" value="" style="line;strokeWidth=2;direction=south;html=1;" vertex="1" parent="WIyWlLk6GJQsqaUBKTNV-1">
          <mxGeometry x="390" y="70" width="10" height="410" as="geometry" />
        </mxCell>
        <mxCell id="5DlMowVjE7A0AEm3bCIs-25" style="edgeStyle=orthogonalEdgeStyle;rounded=0;orthogonalLoop=1;jettySize=auto;html=1;exitX=0.5;exitY=1;exitDx=0;exitDy=0;entryX=0.5;entryY=0;entryDx=0;entryDy=0;" edge="1" parent="WIyWlLk6GJQsqaUBKTNV-1" source="5DlMowVjE7A0AEm3bCIs-9" target="5DlMowVjE7A0AEm3bCIs-18">
          <mxGeometry relative="1" as="geometry" />
        </mxCell>
        <mxCell id="5DlMowVjE7A0AEm3bCIs-9" value="Nhập thông tin sp" style="rounded=1;whiteSpace=wrap;html=1;" vertex="1" parent="WIyWlLk6GJQsqaUBKTNV-1">
          <mxGeometry x="170" y="240" width="100" height="40" as="geometry" />
        </mxCell>
        <mxCell id="5DlMowVjE7A0AEm3bCIs-33" style="edgeStyle=orthogonalEdgeStyle;rounded=0;orthogonalLoop=1;jettySize=auto;html=1;exitX=1;exitY=0.5;exitDx=0;exitDy=0;entryX=0;entryY=0.5;entryDx=0;entryDy=0;" edge="1" parent="WIyWlLk6GJQsqaUBKTNV-1" source="5DlMowVjE7A0AEm3bCIs-10" target="5DlMowVjE7A0AEm3bCIs-32">
          <mxGeometry relative="1" as="geometry" />
        </mxCell>
        <mxCell id="5DlMowVjE7A0AEm3bCIs-10" value="Xem thông tin sp" style="rounded=1;whiteSpace=wrap;html=1;" vertex="1" parent="WIyWlLk6GJQsqaUBKTNV-1">
          <mxGeometry x="70" y="395" width="110" height="40" as="geometry" />
        </mxCell>
        <mxCell id="5DlMowVjE7A0AEm3bCIs-24" style="edgeStyle=orthogonalEdgeStyle;rounded=0;orthogonalLoop=1;jettySize=auto;html=1;exitX=0;exitY=0.5;exitDx=0;exitDy=0;entryX=1;entryY=0.25;entryDx=0;entryDy=0;" edge="1" parent="WIyWlLk6GJQsqaUBKTNV-1" source="5DlMowVjE7A0AEm3bCIs-11" target="5DlMowVjE7A0AEm3bCIs-9">
          <mxGeometry relative="1" as="geometry" />
        </mxCell>
        <mxCell id="5DlMowVjE7A0AEm3bCIs-11" value="Hiển thị form nhâp tt sp" style="rounded=1;whiteSpace=wrap;html=1;" vertex="1" parent="WIyWlLk6GJQsqaUBKTNV-1">
          <mxGeometry x="530" y="230" width="110" height="40" as="geometry" />
        </mxCell>
        <mxCell id="5DlMowVjE7A0AEm3bCIs-28" style="edgeStyle=orthogonalEdgeStyle;rounded=0;orthogonalLoop=1;jettySize=auto;html=1;exitX=1;exitY=0.5;exitDx=0;exitDy=0;entryX=0;entryY=0.5;entryDx=0;entryDy=0;" edge="1" parent="WIyWlLk6GJQsqaUBKTNV-1" source="5DlMowVjE7A0AEm3bCIs-12" target="5DlMowVjE7A0AEm3bCIs-14">
          <mxGeometry relative="1" as="geometry" />
        </mxCell>
        <mxCell id="5DlMowVjE7A0AEm3bCIs-12" value="Kiểm tra các thuộc tính bắt buộc" style="rounded=1;whiteSpace=wrap;html=1;" vertex="1" parent="WIyWlLk6GJQsqaUBKTNV-1">
          <mxGeometry x="450" y="290" width="80" height="40" as="geometry" />
        </mxCell>
        <mxCell id="5DlMowVjE7A0AEm3bCIs-13" value="Quay về ds sp" style="rounded=1;whiteSpace=wrap;html=1;" vertex="1" parent="WIyWlLk6GJQsqaUBKTNV-1">
          <mxGeometry x="446" y="350" width="80" height="40" as="geometry" />
        </mxCell>
        <mxCell id="5DlMowVjE7A0AEm3bCIs-29" style="edgeStyle=orthogonalEdgeStyle;rounded=0;orthogonalLoop=1;jettySize=auto;html=1;exitX=1;exitY=0.5;exitDx=0;exitDy=0;entryX=0;entryY=0.5;entryDx=0;entryDy=0;" edge="1" parent="WIyWlLk6GJQsqaUBKTNV-1" source="5DlMowVjE7A0AEm3bCIs-14" target="5DlMowVjE7A0AEm3bCIs-15">
          <mxGeometry relative="1" as="geometry" />
        </mxCell>
        <mxCell id="5DlMowVjE7A0AEm3bCIs-30" style="edgeStyle=orthogonalEdgeStyle;rounded=0;orthogonalLoop=1;jettySize=auto;html=1;exitX=0.5;exitY=1;exitDx=0;exitDy=0;entryX=0;entryY=0.5;entryDx=0;entryDy=0;" edge="1" parent="WIyWlLk6GJQsqaUBKTNV-1" source="5DlMowVjE7A0AEm3bCIs-14" target="5DlMowVjE7A0AEm3bCIs-16">
          <mxGeometry relative="1" as="geometry" />
        </mxCell>
        <mxCell id="5DlMowVjE7A0AEm3bCIs-14" value="Hợp lệ" style="rhombus;whiteSpace=wrap;html=1;" vertex="1" parent="WIyWlLk6GJQsqaUBKTNV-1">
          <mxGeometry x="550" y="290" width="40" height="40" as="geometry" />
        </mxCell>
        <mxCell id="5DlMowVjE7A0AEm3bCIs-31" style="edgeStyle=orthogonalEdgeStyle;rounded=0;orthogonalLoop=1;jettySize=auto;html=1;exitX=1;exitY=0.5;exitDx=0;exitDy=0;entryX=0.5;entryY=0;entryDx=0;entryDy=0;" edge="1" parent="WIyWlLk6GJQsqaUBKTNV-1" source="5DlMowVjE7A0AEm3bCIs-15" target="5DlMowVjE7A0AEm3bCIs-17">
          <mxGeometry relative="1" as="geometry" />
        </mxCell>
        <mxCell id="5DlMowVjE7A0AEm3bCIs-15" value="Lưu vào dsdl" style="rounded=1;whiteSpace=wrap;html=1;" vertex="1" parent="WIyWlLk6GJQsqaUBKTNV-1">
          <mxGeometry x="620" y="290" width="70" height="40" as="geometry" />
        </mxCell>
        <mxCell id="5DlMowVjE7A0AEm3bCIs-16" value="Thông báo nhập lại" style="rounded=1;whiteSpace=wrap;html=1;" vertex="1" parent="WIyWlLk6GJQsqaUBKTNV-1">
          <mxGeometry x="610" y="340" width="80" height="40" as="geometry" />
        </mxCell>
        <mxCell id="5DlMowVjE7A0AEm3bCIs-17" value="End" style="ellipse;whiteSpace=wrap;html=1;" vertex="1" parent="WIyWlLk6GJQsqaUBKTNV-1">
          <mxGeometry x="710" y="390" width="80" height="50" as="geometry" />
        </mxCell>
        <mxCell id="5DlMowVjE7A0AEm3bCIs-26" style="edgeStyle=orthogonalEdgeStyle;rounded=0;orthogonalLoop=1;jettySize=auto;html=1;" edge="1" parent="WIyWlLk6GJQsqaUBKTNV-1" target="5DlMowVjE7A0AEm3bCIs-12">
          <mxGeometry relative="1" as="geometry">
            <mxPoint x="240" y="310" as="sourcePoint" />
          </mxGeometry>
        </mxCell>
        <mxCell id="5DlMowVjE7A0AEm3bCIs-27" style="edgeStyle=orthogonalEdgeStyle;rounded=0;orthogonalLoop=1;jettySize=auto;html=1;exitX=1;exitY=0.5;exitDx=0;exitDy=0;entryX=0;entryY=0.75;entryDx=0;entryDy=0;" edge="1" parent="WIyWlLk6GJQsqaUBKTNV-1" source="5DlMowVjE7A0AEm3bCIs-18" target="5DlMowVjE7A0AEm3bCIs-13">
          <mxGeometry relative="1" as="geometry" />
        </mxCell>
        <mxCell id="5DlMowVjE7A0AEm3bCIs-18" value="" style="rhombus;whiteSpace=wrap;html=1;" vertex="1" parent="WIyWlLk6GJQsqaUBKTNV-1">
          <mxGeometry x="205" y="295" width="30" height="30" as="geometry" />
        </mxCell>
        <mxCell id="5DlMowVjE7A0AEm3bCIs-34" style="edgeStyle=orthogonalEdgeStyle;rounded=0;orthogonalLoop=1;jettySize=auto;html=1;exitX=1;exitY=0.5;exitDx=0;exitDy=0;entryX=0;entryY=0.644;entryDx=0;entryDy=0;entryPerimeter=0;" edge="1" parent="WIyWlLk6GJQsqaUBKTNV-1" source="5DlMowVjE7A0AEm3bCIs-32" target="5DlMowVjE7A0AEm3bCIs-17">
          <mxGeometry relative="1" as="geometry" />
        </mxCell>
        <mxCell id="5DlMowVjE7A0AEm3bCIs-32" value="Hiển thị thông tin sp" style="rounded=1;whiteSpace=wrap;html=1;" vertex="1" parent="WIyWlLk6GJQsqaUBKTNV-1">
          <mxGeometry x="410" y="400" width="100" height="40" as="geometry" />
        </mxCell>
        <mxCell id="5DlMowVjE7A0AEm3bCIs-35" value="save" style="text;html=1;strokeColor=none;fillColor=none;align=center;verticalAlign=middle;whiteSpace=wrap;rounded=0;" vertex="1" parent="WIyWlLk6GJQsqaUBKTNV-1">
          <mxGeometry x="330" y="290" width="60" height="30" as="geometry" />
        </mxCell>
        <mxCell id="5DlMowVjE7A0AEm3bCIs-36" value="cance" style="text;html=1;strokeColor=none;fillColor=none;align=center;verticalAlign=middle;whiteSpace=wrap;rounded=0;" vertex="1" parent="WIyWlLk6GJQsqaUBKTNV-1">
          <mxGeometry x="350" y="360" width="60" height="30" as="geometry" />
        </mxCell>
        <mxCell id="5DlMowVjE7A0AEm3bCIs-38" value="HL" style="text;html=1;strokeColor=none;fillColor=none;align=center;verticalAlign=middle;whiteSpace=wrap;rounded=0;" vertex="1" parent="WIyWlLk6GJQsqaUBKTNV-1">
          <mxGeometry x="570" y="290" width="60" height="30" as="geometry" />
        </mxCell>
        <mxCell id="5DlMowVjE7A0AEm3bCIs-39" value="KHL" style="text;html=1;strokeColor=none;fillColor=none;align=center;verticalAlign=middle;whiteSpace=wrap;rounded=0;" vertex="1" parent="WIyWlLk6GJQsqaUBKTNV-1">
          <mxGeometry x="555" y="350" width="60" height="30" as="geometry" />
        </mxCell>
      </root>
    </mxGraphModel>
  </diagram>
</mxfile>
